<svg xmlns="http://www.w3.org/2000/svg" width="60" height="44" viewBox="0 0 60 44">
  <defs>
    <style>
      .cls-1 {
        fill: #3a3a3a;
        fill-rule: evenodd;
      }
    </style>
  </defs>
  <path id="card-icon" class="cls-1" d="M1385.78,993h-51.56a4.221,4.221,0,0,0-4.22,4.217v35.563a4.221,4.221,0,0,0,4.22,4.22h51.56a4.221,4.221,0,0,0,4.22-4.22V997.217A4.221,4.221,0,0,0,1385.78,993Zm2.22,39.78a2.221,2.221,0,0,1-2.22,2.22h-51.56a2.221,2.221,0,0,1-2.22-2.22V997.217a2.218,2.218,0,0,1,2.22-2.217h51.56a2.218,2.218,0,0,1,2.22,2.217v35.563Zm-53-2.78h11v-8h-11v8Zm2-6h7v4h-7v-4Zm11,6h11v-8h-11v8Zm2-6h7v4h-7v-4Zm11,6h11v-8h-11v8Zm2-6h7v4h-7v-4Zm11,6h11v-8h-11v8Zm2-6h7v4h-7v-4Zm-38.75-11h13.5a2.253,2.253,0,0,0,2.25-2.25v-9.49a2.256,2.256,0,0,0-2.25-2.26h-13.5a2.256,2.256,0,0,0-2.25,2.26v9.49A2.253,2.253,0,0,0,1337.25,1013Zm3.75-6h-4v-2h4v2Zm-4,3.75V1009h4v1.75a2.418,2.418,0,0,0,.03.25h-3.78A0.248,0.248,0,0,1,1337,1010.75Zm14-3.75h-4v-1.75a0.25,0.25,0,0,1,.26-0.25h3.49a2.418,2.418,0,0,0,.25-0.03V1007Zm-0.25,4h-3.78a2.418,2.418,0,0,0,.03-0.25V1009h4v1.75A0.248,0.248,0,0,1,1350.75,1011Zm0-10a0.25,0.25,0,0,1,.25.26v1.49a0.248,0.248,0,0,1-.25.25h-3.49a2.256,2.256,0,0,0-2.26,2.25v5.5a0.25,0.25,0,0,1-.26.25h-1.49a0.248,0.248,0,0,1-.25-0.25v-9.49a0.25,0.25,0,0,1,.25-0.26h7.5Zm-13.5,0h3.78a2.061,2.061,0,0,0-.03.26V1003h-4v-1.74A0.25,0.25,0,0,1,1337.25,1001Zm24.75,0h9a1,1,0,0,0,0-2h-9A1,1,0,0,0,1362,1001Zm22-2h-9a1,1,0,0,0,0,2h9A1,1,0,0,0,1384,999Zm-22,7h1a1,1,0,0,0,0-2h-1A1,1,0,0,0,1362,1006Zm5-2a1,1,0,0,0,0,2h2a1,1,0,0,0,0-2h-2Zm8,1a1,1,0,0,0-1-1h-1a1,1,0,0,0,0,2h1A1,1,0,0,0,1375,1005Zm5,1a1,1,0,0,0,0-2h-2a1,1,0,0,0,0,2h2Zm3.29-1.71a1.014,1.014,0,0,0,0,1.42,1.033,1.033,0,0,0,.71.29A1,1,0,1,0,1383.29,1004.29Z" transform="translate(-1330 -993)"/>
</svg>
