<svg xmlns="http://www.w3.org/2000/svg" width="60" height="60" viewBox="0 0 60 60">
  <defs>
    <style>
      .cls-1 {
        fill: #3a3a3a;
        fill-rule: evenodd;
      }
    </style>
  </defs>
  <path id="guarantee-icon" class="cls-1" d="M988.685,1012.14a4.317,4.317,0,0,1-.9-1.54,4.466,4.466,0,0,1,.388-1.8,3.712,3.712,0,0,0-1.759-5.37,4.429,4.429,0,0,1-1.348-1.2,4.489,4.489,0,0,1-.187-1.82,3.71,3.71,0,0,0-3.326-4.565,2.5,2.5,0,0,1-2.394-2.395,3.714,3.714,0,0,0-4.566-3.327,2.507,2.507,0,0,1-3.019-1.534,3.712,3.712,0,0,0-5.369-1.761,4.536,4.536,0,0,1-1.8.389,4.422,4.422,0,0,1-1.542-.9,3.765,3.765,0,0,0-5.719,0,4.395,4.395,0,0,1-1.541.9,4.488,4.488,0,0,1-1.8-.389,3.709,3.709,0,0,0-5.367,1.759,4.424,4.424,0,0,1-1.2,1.347,4.494,4.494,0,0,1-1.818.187,3.712,3.712,0,0,0-4.566,3.326,2.505,2.505,0,0,1-2.4,2.4,3.713,3.713,0,0,0-3.327,4.567,4.491,4.491,0,0,1-.186,1.82,4.558,4.558,0,0,1-1.347,1.2,3.711,3.711,0,0,0-1.76,5.37,4.469,4.469,0,0,1,.389,1.8,4.332,4.332,0,0,1-.9,1.54,3.765,3.765,0,0,0,0,5.72,4.418,4.418,0,0,1,.9,1.54l1.853-.29a5.568,5.568,0,0,0-1.257-2.38,2.064,2.064,0,0,1,0-3.46,5.579,5.579,0,0,0,1.257-2.38,5.72,5.72,0,0,0-.469-2.71,3.679,3.679,0,0,1-.356-1.87,3.723,3.723,0,0,1,1.417-1.35,5.535,5.535,0,0,0,1.944-1.88,5.666,5.666,0,0,0,.391-2.7,2.018,2.018,0,0,1,2-2.743A4.212,4.212,0,0,0,942.638,994a2.017,2.017,0,0,1,2.742-2,4.213,4.213,0,0,0,4.587-2.335,2.013,2.013,0,0,1,3.218-1.06,5.7,5.7,0,0,0,2.706.469,5.555,5.555,0,0,0,2.378-1.257,2.067,2.067,0,0,1,3.463,0,5.56,5.56,0,0,0,2.378,1.257,5.729,5.729,0,0,0,2.706-.469,3.69,3.69,0,0,1,1.879-.356,3.744,3.744,0,0,1,1.341,1.416A4.209,4.209,0,0,0,974.622,992a2.017,2.017,0,0,1,2.742,2,4.207,4.207,0,0,0,3.642,3.642,2.018,2.018,0,0,1,2,2.743,5.654,5.654,0,0,0,.392,2.7,5.532,5.532,0,0,0,1.943,1.88,3.731,3.731,0,0,1,1.417,1.35,3.69,3.69,0,0,1-.356,1.87,5.733,5.733,0,0,0-.469,2.71,5.59,5.59,0,0,0,1.257,2.38,2.065,2.065,0,0,1,0,3.46,5.6,5.6,0,0,0-1.257,2.38l1.854,0.29a4.4,4.4,0,0,1,.9-1.54A3.768,3.768,0,0,0,988.685,1012.14ZM981,1032.36a4.216,4.216,0,0,0-3.642,3.64,2.019,2.019,0,0,1-2.741,2,5.626,5.626,0,0,0-2.7.4,5.533,5.533,0,0,0-1.883,1.94,2.01,2.01,0,0,1-3.22,1.06,5.777,5.777,0,0,0-2.706-.47,5.525,5.525,0,0,0-2.377,1.26,2.079,2.079,0,0,1-3.465,0,5.531,5.531,0,0,0-2.377-1.26,5.779,5.779,0,0,0-2.706.47,2.009,2.009,0,0,1-3.219-1.06,5.667,5.667,0,0,0-1.883-1.95,5.743,5.743,0,0,0-2.7-.39,2.02,2.02,0,0,1-2.743-2,5.6,5.6,0,0,0-1.2-2.44,5.674,5.674,0,0,0-2.443-1.2,3.718,3.718,0,0,1-1.75-.83l-1.516,1.11a4.91,4.91,0,0,0,2.719,1.51,4.485,4.485,0,0,1,1.665.74,4.421,4.421,0,0,1,.732,1.66,4.908,4.908,0,0,0,1.52,2.72,4.974,4.974,0,0,0,3.047.61,2.492,2.492,0,0,1,3.017,1.53,3.7,3.7,0,0,0,5.368,1.76,4.343,4.343,0,0,1,1.8-.39,4.422,4.422,0,0,1,1.541.9,3.758,3.758,0,0,0,5.72,0,4.589,4.589,0,0,1,1.542-.9,4.358,4.358,0,0,1,1.8.39,4.851,4.851,0,0,0,3.068.37,4.918,4.918,0,0,0,2.3-2.13,4.375,4.375,0,0,1,1.2-1.34,4.159,4.159,0,0,1,1.818-.19,4.985,4.985,0,0,0,3.046-.61,4.879,4.879,0,0,0,1.519-2.72,4.437,4.437,0,0,1,.732-1.66,4.484,4.484,0,0,1,1.663-.73,4.982,4.982,0,0,0,2.72-1.52l-1.516-1.11A3.709,3.709,0,0,1,981,1032.36Zm-43.5-4.24v-1.87a0.938,0.938,0,0,0-.937-0.94h-1.875v1.88h0.937v0.93a0.938,0.938,0,1,1-1.875,0v-5.62a0.938,0.938,0,1,1,1.875,0v0.94H937.5v-0.94a2.813,2.813,0,0,0-5.625,0v5.62A2.813,2.813,0,1,0,937.5,1028.12Zm0.938-8.43v8.43a2.813,2.813,0,1,0,5.625,0v-8.43h-1.875v8.43a0.938,0.938,0,1,1-1.875,0v-8.43h-1.875ZM945,1022.5v8.44h1.875v-1.88h1.875v1.88h1.875v-8.44A2.813,2.813,0,0,0,945,1022.5Zm3.75,0v4.69h-1.875v-4.69A0.938,0.938,0,1,1,948.75,1022.5Zm9.375,0v8.44H960v-1.88h1.875v1.88h1.875v-8.44A2.813,2.813,0,0,0,958.125,1022.5Zm2.813-.94a0.938,0.938,0,0,1,.937.94v4.69H960v-4.69A0.939,0.939,0,0,1,960.938,1021.56Zm-9.375-.93v10.31h1.875v-2.95l2.08,2.6a0.943,0.943,0,0,0,.732.35h0.938v-1.88H956.7l-2.282-2.85a3.28,3.28,0,0,0-.512-6.52H952.5A0.938,0.938,0,0,0,951.563,1020.63Zm1.875,0.93h0.468a1.41,1.41,0,0,1,0,2.82h-0.468v-2.82Zm15,3.57-1.942-4.85a0.936,0.936,0,0,0-1.808.35v10.31h1.875v-5.45l1.941,4.86a0.942,0.942,0,0,0,.87.59,1.078,1.078,0,0,0,.178-0.02,0.932,0.932,0,0,0,.761-0.92v-10.31h-1.875v5.44Zm6.562-3.57h1.875v-1.87H971.25v1.87h1.875v9.38H975v-9.38Zm7.5,0v-1.87h-3.75a0.938,0.938,0,0,0-.937.94V1030a0.938,0.938,0,0,0,.937.94h3.75v-1.88h-2.812v-2.81H982.5v-1.87h-2.812v-2.82H982.5Zm0.938-.93V1030a0.938,0.938,0,0,0,.937.94h3.75v-1.88h-2.812v-2.81h2.812v-1.87h-2.812v-2.82h2.812v-1.87h-3.75A0.938,0.938,0,0,0,983.438,1020.63Zm0-5.63a23.438,23.438,0,1,0-46.875,0,23.782,23.782,0,0,0,.188,2.93l1.86-.23a22.009,22.009,0,0,1-.173-2.7,21.563,21.563,0,0,1,43.125,0,21.825,21.825,0,0,1-.175,2.7l1.86,0.23A23.407,23.407,0,0,0,983.438,1015Zm-9.125,18.55-1.147-1.48a21.547,21.547,0,0,1-26.331,0l-1.147,1.48A23.391,23.391,0,0,0,974.313,1033.55Zm-23.688-28.86H948.75v1.87h0.938v9.38h1.875v-10.32A0.936,0.936,0,0,0,950.625,1004.69Zm5.156,0a3.283,3.283,0,0,0-3.281,3.28v4.69a3.282,3.282,0,0,0,6.563,0v-4.69A3.284,3.284,0,0,0,955.781,1004.69Zm1.407,7.97a1.407,1.407,0,0,1-2.813,0v-4.69a1.407,1.407,0,1,1,2.813,0v4.69Zm6.093-7.97a3.283,3.283,0,0,0-3.281,3.28v4.69a3.282,3.282,0,0,0,6.563,0v-4.69A3.284,3.284,0,0,0,963.281,1004.69Zm1.407,7.97a1.407,1.407,0,0,1-2.813,0v-4.69a1.407,1.407,0,1,1,2.813,0v4.69Zm4.785,1.92,3.75-7.5,1.677,0.84-3.75,7.5Zm-1.035-6.14h1.875v1.87h-1.875v-1.87Zm5.625,3.75h1.875v1.87h-1.875v-1.87Z" transform="translate(-930 -985)"/>
</svg>
