<svg xmlns="http://www.w3.org/2000/svg" width="60" height="54" viewBox="0 0 60 54">
  <defs>
    <style>
      .cls-1 {
        fill: #3a3a3a;
        fill-rule: evenodd;
      }
    </style>
  </defs>
  <path id="printer-icon" class="cls-1" d="M583.483,996.4h-5.694V990.74a2.753,2.753,0,0,0-2.76-2.74H544.971a2.753,2.753,0,0,0-2.76,2.74V996.4h-5.694A6.5,6.5,0,0,0,530,1002.87v22.39a6.508,6.508,0,0,0,6.517,6.48h5.694v7.52a2.754,2.754,0,0,0,2.76,2.74h30.058a2.754,2.754,0,0,0,2.76-2.74v-7.52h5.694a6.508,6.508,0,0,0,6.517-6.48v-22.39A6.5,6.5,0,0,0,583.483,996.4Zm-39.51-5.657a1,1,0,0,1,1-.991h30.058a1,1,0,0,1,1,.991V996.4H543.973V990.74Zm-7.456,7.406h46.966a4.749,4.749,0,0,1,4.756,4.724v10.32H531.761v-10.32A4.748,4.748,0,0,1,536.517,998.146Zm39.51,41.114a0.992,0.992,0,0,1-1,.99H544.971a0.992,0.992,0,0,1-1-.99v-16.85h32.054v16.85Zm7.456-9.27h-5.694v-7.58h5.694a0.875,0.875,0,1,0,0-1.75H536.517a0.875,0.875,0,1,0,0,1.75h5.694v7.58h-5.694a4.747,4.747,0,0,1-4.756-4.73v-10.32h56.478v10.32A4.748,4.748,0,0,1,583.483,1029.99Zm-3.757-20.65a3.67,3.67,0,1,0-3.7-3.67A3.685,3.685,0,0,0,579.726,1009.34Zm0-5.6a1.925,1.925,0,1,1-1.937,1.93A1.938,1.938,0,0,1,579.726,1003.74Zm-8.454,4.67a2.74,2.74,0,1,0-2.759-2.74A2.753,2.753,0,0,0,571.272,1008.41Zm0-3.73a0.99,0.99,0,1,1-1,.99A0.993,0.993,0,0,1,571.272,1004.68Zm0,20.64H548.728a0.875,0.875,0,1,0,0,1.75h22.544A0.875,0.875,0,1,0,571.272,1025.32Zm0,4.67H548.728a0.875,0.875,0,1,0,0,1.75h22.544A0.875,0.875,0,1,0,571.272,1029.99Zm0,4.66H548.728a0.875,0.875,0,1,0,0,1.75h22.544A0.875,0.875,0,1,0,571.272,1034.65Z" transform="translate(-530 -988)"/>
</svg>
