<svg xmlns="http://www.w3.org/2000/svg" width="40" height="35" viewBox="0 0 40 35">
  <defs>
    <style>
      .cls-1 {
        fill: #fff;
        fill-rule: evenodd;
      }
    </style>
  </defs>
  <path id="compact-icon" class="cls-1" d="M826.588,2647.82h-3.5v-0.04a2.745,2.745,0,0,0-2.722-2.76h-0.043v-6.36a0.651,0.651,0,0,0-.648-0.66H800.324a0.651,0.651,0,0,0-.648.66v6.36h-0.043a2.745,2.745,0,0,0-2.722,2.76v0.04h-3.5a3.448,3.448,0,0,0-3.412,3.47v15.44a3.439,3.439,0,0,0,3.412,3.46h3.5v0.05a2.745,2.745,0,0,0,2.722,2.76h20.734a2.745,2.745,0,0,0,2.722-2.76v-0.05h3.5a3.439,3.439,0,0,0,3.412-3.46v-15.44A3.448,3.448,0,0,0,826.588,2647.82Zm-6.264-1.49h0.043a1.44,1.44,0,0,1,1.426,1.45v0.04h-1.469v-1.49Zm-19.352-.65h0v-6.36h18.056v6.36h0v2.14H800.972v-2.14Zm-2.765,2.1a1.44,1.44,0,0,1,1.426-1.45h0.043v1.49h-1.469v-0.04Zm-2.764,1.36h29.114v7.06a1.439,1.439,0,0,1-1.425,1.45H796.868a1.439,1.439,0,0,1-1.425-1.45v-7.06Zm1.468,14.12h-0.734a0.736,0.736,0,0,1-.734-0.74,0.745,0.745,0,0,1,.734-0.75h0.734v1.49Zm24.882,0.66h0a0.016,0.016,0,0,1,0,.01v6.31a1.437,1.437,0,0,1-1.426,1.44H799.633a1.437,1.437,0,0,1-1.426-1.44v-8.47h1.469v7.76a0.651,0.651,0,0,0,.648.66h19.352a0.651,0.651,0,0,0,.648-0.66v-7.76h1.469v2.15Zm-20.821,4.96v-7.11h18.056v7.11H800.972Zm27.732-2.15a2.139,2.139,0,0,1-2.116,2.15h-3.5v-4.3h0.734a2.06,2.06,0,0,0,0-4.12H796.177a2.06,2.06,0,0,0,0,4.12h0.734v4.3h-3.5a2.139,2.139,0,0,1-2.116-2.15v-15.44a2.133,2.133,0,0,1,2.116-2.15h0.735v7.06a2.739,2.739,0,0,0,2.721,2.76h26.264a2.739,2.739,0,0,0,2.721-2.76v-7.06h0.735a2.133,2.133,0,0,1,2.116,2.15v15.44Zm-5.615-3.47v-1.49h0.734a0.745,0.745,0,0,1,.734.75,0.736,0.736,0,0,1-.734.74h-0.734Zm-24.147-7.1a2.06,2.06,0,1,0-2.031-2.06A2.051,2.051,0,0,0,798.942,2656.16Zm0-2.81a0.745,0.745,0,0,1,.734.75,0.735,0.735,0,1,1-1.469,0A0.746,0.746,0,0,1,798.942,2653.35Zm4.147,1.4h1.382a0.655,0.655,0,0,0,0-1.31h-1.382A0.655,0.655,0,0,0,803.089,2654.75Zm4.146,0h1.383a0.655,0.655,0,0,0,0-1.31h-1.383A0.655,0.655,0,0,0,807.235,2654.75Zm9.676,8.51H803.089a0.66,0.66,0,0,0,0,1.32h13.822A0.66,0.66,0,0,0,816.911,2663.26Zm0,2.81H803.089a0.66,0.66,0,0,0,0,1.32h13.822A0.66,0.66,0,0,0,816.911,2666.07Z" transform="translate(-790 -2638)"/>
</svg>
