<svg xmlns="http://www.w3.org/2000/svg" width="32" height="40" viewBox="0 0 32 40">
  <defs>
    <style>
      .cls-1 {
        fill: #fff;
        fill-rule: evenodd;
      }
    </style>
  </defs>
  <path id="cost-icon" class="cls-1" d="M1400.6,2642.53v-2.17a0.935,0.935,0,0,1,.75.74,0.63,0.63,0,0,0,1.26,0,2.223,2.223,0,0,0-2.01-2.03v-0.1a0.625,0.625,0,1,0-1.25,0v0.1a2.214,2.214,0,0,0-2.01,2.03,2.559,2.559,0,0,0,2.01,2.32v2.17a0.935,0.935,0,0,1-.75-0.74,0.632,0.632,0,0,0-.63-0.62,0.625,0.625,0,0,0-.63.62,2.214,2.214,0,0,0,2.01,2.03v0.1a0.625,0.625,0,1,0,1.25,0v-0.1a2.223,2.223,0,0,0,2.01-2.03A2.559,2.559,0,0,0,1400.6,2642.53Zm-1.25-.48a0.978,0.978,0,0,1-.75-0.95,0.935,0.935,0,0,1,.75-0.74v1.69Zm1.25,3.54v-1.69a0.978,0.978,0,0,1,.75.95A0.935,0.935,0,0,1,1400.6,2645.59Zm9.4-5.91h-5.35a0.625,0.625,0,0,0,0,1.25H1410A0.625,0.625,0,1,0,1410,2639.68Zm6.68,10.02h-18.71a0.625,0.625,0,1,0,0,1.25h18.71A0.625,0.625,0,1,0,1416.68,2649.7Zm-12.7,4.01h-2a0.625,0.625,0,1,0,0,1.25h2A0.625,0.625,0,1,0,1403.98,2653.71Zm-4.67,0h-1.34a0.625,0.625,0,1,0,0,1.25h1.34A0.625,0.625,0,0,0,1399.31,2653.71Zm4.67,5.34h-2a0.625,0.625,0,1,0,0,1.25h2A0.625,0.625,0,1,0,1403.98,2659.05Zm-4.67,0h-1.34a0.625,0.625,0,1,0,0,1.25h1.34A0.625,0.625,0,0,0,1399.31,2659.05Zm4.67,5.34h-2a0.63,0.63,0,0,0,0,1.26h2A0.63,0.63,0,1,0,1403.98,2664.39Zm-4.67,0h-1.34a0.63,0.63,0,1,0,0,1.26h1.34A0.63,0.63,0,0,0,1399.31,2664.39Zm24.06-12.02h-2.72v-10.06a0.627,0.627,0,0,0-.18-0.45l-6.68-6.68a0.671,0.671,0,0,0-.45-0.18h-17.38a1.963,1.963,0,0,0-1.96,1.96v32.07a1.963,1.963,0,0,0,1.96,1.96h10.07v1.38a2.633,2.633,0,0,0,2.63,2.63h14.71a2.633,2.633,0,0,0,2.63-2.63V2655A2.633,2.633,0,0,0,1423.37,2652.37Zm-9.4-15.23,4.54,4.54h-3.16a1.383,1.383,0,0,1-1.38-1.38v-3.16Zm-7.94,32.6h-10.07a0.713,0.713,0,0,1-.71-0.71v-32.07a0.713,0.713,0,0,1,.71-0.71h16.76v4.05a2.633,2.633,0,0,0,2.63,2.63h4.05v9.44h-10.74a2.633,2.633,0,0,0-2.63,2.63m18.72,17.37a1.383,1.383,0,0,1-1.38,1.38h-14.71a1.383,1.383,0,0,1-1.38-1.38V2655a1.383,1.383,0,0,1,1.38-1.38h14.71a1.383,1.383,0,0,1,1.38,1.38v17.37h0Zm-2.72-17.33H1410a1.3,1.3,0,0,0-1.3,1.3v2.67a1.3,1.3,0,0,0,1.3,1.29h12.03a1.3,1.3,0,0,0,1.3-1.29v-2.67A1.3,1.3,0,0,0,1422.03,2655.04Zm0.04,3.97a0.043,0.043,0,0,1-.04.04H1410a0.043,0.043,0,0,1-.04-0.04v-2.67a0.046,0.046,0,0,1,.04-0.05h12.03a0.046,0.046,0,0,1,.04.05v2.67h0Zm-10.73,3.38H1410a1.3,1.3,0,0,0-1.3,1.29v1.34a1.31,1.31,0,0,0,1.3,1.3h1.34a1.3,1.3,0,0,0,1.29-1.3v-1.34A1.293,1.293,0,0,0,1411.34,2662.39Zm0.04,2.63a0.043,0.043,0,0,1-.04.04H1410a0.043,0.043,0,0,1-.04-0.04v-1.34a0.043,0.043,0,0,1,.04-0.04h1.34a0.043,0.043,0,0,1,.04.04v1.34h0Zm10.65-2.63h-1.34a1.293,1.293,0,0,0-1.29,1.29v1.34a1.3,1.3,0,0,0,1.29,1.3h1.34a1.3,1.3,0,0,0,1.3-1.3v-1.34A1.3,1.3,0,0,0,1422.03,2662.39Zm0.04,2.63a0.043,0.043,0,0,1-.04.04h-1.34a0.043,0.043,0,0,1-.04-0.04v-1.34a0.043,0.043,0,0,1,.04-0.04h1.34a0.043,0.043,0,0,1,.04.04v1.34Zm-5.39-2.63h-1.33a1.3,1.3,0,0,0-1.3,1.29v1.34a1.3,1.3,0,0,0,1.3,1.3h1.33a1.3,1.3,0,0,0,1.3-1.3v-1.34A1.3,1.3,0,0,0,1416.68,2662.39Zm0.05,2.63a0.046,0.046,0,0,1-.05.04h-1.33a0.037,0.037,0,0,1-.04-0.04v-1.34a0.037,0.037,0,0,1,.04-0.04h1.33a0.046,0.046,0,0,1,.05.04v1.34Zm-5.39,2.71H1410a1.31,1.31,0,0,0-1.3,1.3v1.34a1.3,1.3,0,0,0,1.3,1.29h1.34a1.293,1.293,0,0,0,1.29-1.29v-1.34A1.3,1.3,0,0,0,1411.34,2667.73Zm0.04,2.64a0.043,0.043,0,0,1-.04.04H1410a0.043,0.043,0,0,1-.04-0.04v-1.34a0.043,0.043,0,0,1,.04-0.04h1.34a0.043,0.043,0,0,1,.04.04v1.34h0Zm10.65-2.64h-1.34a1.3,1.3,0,0,0-1.29,1.3v1.34a1.293,1.293,0,0,0,1.29,1.29h1.34a1.3,1.3,0,0,0,1.3-1.29v-1.34A1.3,1.3,0,0,0,1422.03,2667.73Zm0.04,2.64a0.043,0.043,0,0,1-.04.04h-1.34a0.043,0.043,0,0,1-.04-0.04v-1.34a0.043,0.043,0,0,1,.04-0.04h1.34a0.043,0.043,0,0,1,.04.04v1.34Zm-5.39-2.64h-1.33a1.3,1.3,0,0,0-1.3,1.3v1.34a1.3,1.3,0,0,0,1.3,1.29h1.33a1.3,1.3,0,0,0,1.3-1.29v-1.34A1.3,1.3,0,0,0,1416.68,2667.73Zm0.05,2.64a0.046,0.046,0,0,1-.05.04h-1.33a0.037,0.037,0,0,1-.04-0.04v-1.34a0.037,0.037,0,0,1,.04-0.04h1.33a0.046,0.046,0,0,1,.05.04v1.34Z" transform="translate(-1394 -2635)"/>
</svg>
