<svg xmlns="http://www.w3.org/2000/svg" width="37" height="40" viewBox="0 0 37 40">
  <defs>
    <style>
      .cls-1 {
        fill: #fff;
        fill-rule: evenodd;
      }
    </style>
  </defs>
  <path id="manager-icon" class="cls-1" d="M527.821,2667.35a5.992,5.992,0,0,0-3.353-2.48c-0.014,0-.027-0.01-0.04-0.01l-4.92-1.04-1.324-2.04-0.021-.03a1.228,1.228,0,0,0-1.768-.22,0.011,0.011,0,0,1-.012.01l-5.883,5.14-5.883-5.14a0.011,0.011,0,0,1-.012-0.01,1.249,1.249,0,0,0-.93-0.27,1.236,1.236,0,0,0-.838.49l-0.021.03-1.324,2.04-4.92,1.04c-0.013,0-.026.01-0.04,0.01a5.992,5.992,0,0,0-3.353,2.48,6.94,6.94,0,0,0-1.179,3.83v1.55a2.378,2.378,0,0,0,2.467,2.27h32.066a2.379,2.379,0,0,0,2.467-2.27v-1.55A6.94,6.94,0,0,0,527.821,2667.35Zm-10.646-4.85,1.208,1.86-4.257,5.93-1.34-1.36h0l-1.38-1.4Zm-7.292,9.38h1.234c0.037,0,.074-0.01.11-0.01l0.371,1.88h-2.2l0.371-1.88C509.809,2671.87,509.846,2671.88,509.883,2671.88Zm1.85-1.88a0.622,0.622,0,0,1-.616.63h-1.234a0.622,0.622,0,0,1-.616-0.63v-0.37l1.233-1.25,1.233,1.25V2670h0Zm-7.908-7.5,5.769,5.03-1.38,1.4h0l-1.34,1.36-4.257-5.93Zm-10.592,10.23v-1.55a5.308,5.308,0,0,1,3.613-5.1l4.757-1.01,4.7,6.55a0.59,0.59,0,0,0,.451.25c0.016,0,.032.01,0.048,0.01a0.61,0.61,0,0,0,.436-0.19l0.945-.96a1.825,1.825,0,0,0,.434.63l-0.471,2.39H494.467A1.146,1.146,0,0,1,493.233,2672.73Zm34.534,0a1.146,1.146,0,0,1-1.234,1.02H512.856l-0.471-2.39a1.825,1.825,0,0,0,.434-0.63l0.945,0.96a0.61,0.61,0,0,0,.436.19c0.016,0,.032-0.01.048-0.01a0.59,0.59,0,0,0,.451-0.25l4.7-6.55,4.757,1.01a5.308,5.308,0,0,1,3.613,5.1v1.55Zm-27.75-17.83v7.6a0.617,0.617,0,1,0,1.233,0V2655h0.565a12.33,12.33,0,0,0,2.1,4.01,8.476,8.476,0,0,0,6.587,3.49,7.98,7.98,0,0,0,5.335-2.17,0.039,0.039,0,0,0,.021-0.02,2.947,2.947,0,0,0,.3.01,4.895,4.895,0,0,0,2.166-.52,7.454,7.454,0,0,0,3.892-6.67v-3.75a1.865,1.865,0,0,0-1.85-1.88h-0.253c1.367-5.28.748-9.61,0.2-10.87,0-.01,0-0.01,0-0.01a0.205,0.205,0,0,1-.017-0.04,0.034,0.034,0,0,1-.011-0.02c-0.006-.01-0.012-0.02-0.019-0.03a0.034,0.034,0,0,1-.015-0.02c-0.006-.01-0.012-0.01-0.017-0.02l-0.022-.03s-0.01-.01-0.015-0.01l-0.027-.03a0.013,0.013,0,0,0-.013-0.01l-0.033-.03s-0.01-.01-0.015-0.01a0.059,0.059,0,0,0-.033-0.02,0.02,0.02,0,0,0-.02-0.01,0.055,0.055,0,0,0-.031-0.02,0.028,0.028,0,0,0-.025-0.01c-0.01-.01-0.019-0.01-0.029-0.02a0.036,0.036,0,0,1-.029-0.01h-0.027a0.036,0.036,0,0,0-.029-0.01c-0.01,0-.02-0.01-0.03-0.01h-0.026a0.048,0.048,0,0,1-.035-0.01h-0.081a0.07,0.07,0,0,1-.043.01h-0.006a17.214,17.214,0,0,1-5.4-.56c-3.324-.68-6.758-1.37-9.443.57a0.518,0.518,0,0,0-.125-0.02c-2.754,0-4.677,2.32-4.677,5.63a34.972,34.972,0,0,0,.719,5.62h-0.1a1.865,1.865,0,0,0-1.85,1.88v3.75A1.887,1.887,0,0,0,500.017,2654.9Zm17.771,3.78a3.447,3.447,0,0,1-3.767-.37,1.919,1.919,0,0,0,.179-0.81,1.85,1.85,0,1,0-1.85,1.88,1.786,1.786,0,0,0,.8-0.19,0.209,0.209,0,0,0,.054.05,5,5,0,0,0,1.146.7,6.533,6.533,0,0,1-3.841,1.31,7.271,7.271,0,0,1-5.627-3.02,11.429,11.429,0,0,1-2.415-7v-0.71a18.366,18.366,0,0,1,1.669-6.19,27.451,27.451,0,0,1,9.772.52,18.3,18.3,0,0,1,3.514,1.23l1.112,2.68v2.48a11.526,11.526,0,0,1-1.67,5.93,0.628,0.628,0,0,0,.2.86,0.565,0.565,0,0,0,.325.1,0.619,0.619,0,0,0,.524-0.3,12.58,12.58,0,0,0,1.275-2.83h1.183a1.993,1.993,0,0,0,.348-0.03A6.006,6.006,0,0,1,517.788,2658.68Zm-4.821-1.18a0.617,0.617,0,1,1-.617-0.62A0.623,0.623,0,0,1,512.967,2657.5Zm8.016-8.12v3.75a0.62,0.62,0,0,1-.616.62h-0.862a12.436,12.436,0,0,0,.26-2.51v-2.49h0.6A0.622,0.622,0,0,1,520.983,2649.38Zm-16.289-11.88a0.931,0.931,0,0,0,.171-0.02,0.629,0.629,0,0,0,.544-0.1c2.264-1.75,5.49-1.09,8.61-.46a23.75,23.75,0,0,0,4.649.66q0.333,0,.659-0.03a20.4,20.4,0,0,1-.295,9.19l-0.564-1.36a0.657,0.657,0,0,0-.27-0.3c-0.227-.13-5.674-3.11-14.56-1.95h0a0.05,0.05,0,0,1-.036.01,0.03,0.03,0,0,0-.026.01H503.55a0.633,0.633,0,0,0-.193.09,0.016,0.016,0,0,0,0,.01,0.013,0.013,0,0,0-.014.01,0.41,0.41,0,0,0-.11.11h0l-0.018.03c0,0.01-.011.01-0.017,0.02a0.2,0.2,0,0,1-.011.02c-0.006.01-.013,0.03-0.019,0.04h0a26.659,26.659,0,0,0-1.288,3.38,31.824,31.824,0,0,1-.623-4.98C501.25,2638.86,502.98,2637.5,504.694,2637.5Zm-4.677,11.88a0.622,0.622,0,0,1,.616-0.63h0.354c0.116,0.56.207,0.97,0.244,1.13v1.35a12.459,12.459,0,0,0,.26,2.52h-0.858a0.62,0.62,0,0,1-.616-0.62v-3.75Z" transform="translate(-492 -2635)"/>
</svg>
