<svg xmlns="http://www.w3.org/2000/svg" width="39" height="40" viewBox="0 0 39 40">
  <defs>
    <style>
      .cls-1 {
        fill: #fff;
        fill-rule: evenodd;
      }
    </style>
  </defs>
  <path id="style-icon" class="cls-1" d="M1110.5,2635a0.612,0.612,0,0,0-.61.61v2.69a0.61,0.61,0,0,0,1.22,0v-2.69A0.612,0.612,0,0,0,1110.5,2635Zm0,36.09a0.612,0.612,0,0,0-.61.61v2.69a0.61,0.61,0,0,0,1.22,0v-2.69A0.612,0.612,0,0,0,1110.5,2671.09Zm-16.28-16.7h-2.61a0.61,0.61,0,0,0,0,1.22h2.61A0.61,0.61,0,1,0,1094.22,2654.39Zm35.17,0h-2.61a0.61,0.61,0,0,0,0,1.22h2.61A0.61,0.61,0,1,0,1129.39,2654.39Zm-29.97,11.98a0.613,0.613,0,0,0-.86.01l-1.85,1.9a0.625,0.625,0,0,0,0,.87,0.65,0.65,0,0,0,.43.17,0.6,0.6,0,0,0,.43-0.18l1.85-1.9A0.625,0.625,0,0,0,1099.42,2666.37Zm24.87-25.51a0.6,0.6,0,0,0-.86,0l-1.85,1.9a0.616,0.616,0,0,0,0,.87,0.631,0.631,0,0,0,.43.17,0.615,0.615,0,0,0,.43-0.18l1.85-1.9A0.613,0.613,0,0,0,1124.29,2640.86Zm0,27.42-1.85-1.9a0.613,0.613,0,0,0-.86-0.01,0.625,0.625,0,0,0,0,.87l1.85,1.9a0.6,0.6,0,0,0,.43.18,0.65,0.65,0,0,0,.43-0.17A0.625,0.625,0,0,0,1124.29,2668.28Zm-24.87-25.52-1.85-1.9a0.613,0.613,0,0,0-.86-0.01,0.625,0.625,0,0,0,0,.87l1.85,1.9a0.615,0.615,0,0,0,.43.18A0.605,0.605,0,0,0,1099.42,2642.76Zm18.09,14.89-5.82,7.19,4.24-13.07h6.34l-3.09,3.82Zm2.6-1.28,3.31-4.09a1.909,1.909,0,0,0,.12-2.24l-4.1-6.35a1.855,1.855,0,0,0-1.56-.85h-14.76a1.855,1.855,0,0,0-1.56.85l-4.1,6.35a1.909,1.909,0,0,0,.12,2.24l11.48,14.19a1.848,1.848,0,0,0,2.88,0l6.51-8.04C1118.66,2658.17,1119.99,2656.51,1120.11,2656.37Zm-10.9-12.31h0.16l-2.9,4.49-2.9-4.49h5.64Zm8.22,0-2.9,4.49-2.9-4.49h5.8Zm-14.98.5,3.3,5.11-0.57.88h-6.6Zm6.97,5.99h-2.79l3.87-5.99,3.87,5.99h-4.95Zm-2.09,4.18-0.95-2.96h8.27l-4.15,12.81-2.44-7.57C1107.96,2656.69,1107.43,2655.05,1107.33,2654.73Zm-0.42,2.66,2.4,7.46-10.58-13.08h6.37l1.08,3.34C1106.26,2655.37,1106.81,2657.07,1106.91,2657.39Zm8.91-6.84-0.57-.88,3.3-5.11,3.87,5.99h-6.6Z" transform="translate(-1091 -2635)"/>
</svg>
